<?xml version="1.0" encoding="utf-8"?>
<!-- Generator: Adobe Illustrator 16.0.0, SVG Export Plug-In . SVG Version: 6.00 Build 0)  -->
<!DOCTYPE svg PUBLIC "-//W3C//DTD SVG 1.1//EN" "http://www.w3.org/Graphics/SVG/1.1/DTD/svg11.dtd">
<svg version="1.1" id="Calque_1" xmlns="http://www.w3.org/2000/svg" xmlns:xlink="http://www.w3.org/1999/xlink" x="0px" y="0px"
	 width="40px" height="40px" viewBox="0 0 40 40" enable-background="new 0 0 40 40" xml:space="preserve">
<g>
	<path fill="#FFFFFF" stroke="#FFFFFF" stroke-width="4" stroke-linecap="square" stroke-linejoin="bevel" d="M28.027,37.486
		L11.504,21.818c-0.854-0.365-1.282-0.947-1.282-1.75c0-0.802,0.428-1.385,1.282-1.749l16.523-15.67
		c0.544-0.233,0.976-0.2,1.301,0.097c0.324,0.298,0.474,0.674,0.447,1.127c-0.024,0.454-0.299,0.797-0.816,1.03L13.332,20.068
		l15.627,15.166c0.518,0.232,0.792,0.578,0.816,1.029c0.026,0.454-0.123,0.83-0.447,1.127
		C29.003,37.688,28.571,37.723,28.027,37.486z"/>
</g>
</svg>
